<?xml version="1.0" standalone="no"?>
<!DOCTYPE svg PUBLIC "-//W3C//DTD SVG 20010904//EN"
 "http://www.w3.org/TR/2001/REC-SVG-20010904/DTD/svg10.dtd">
<svg version="1.0" xmlns="http://www.w3.org/2000/svg"
 width="1586.000000pt" height="448.000000pt" viewBox="0 0 1586.000000 448.000000"
 preserveAspectRatio="xMidYMid meet">

<g transform="translate(0.000000,448.000000) scale(0.100000,-0.100000)"
fill="#000000" stroke="none">
<path d="M1715 4172 c-68 -42 -139 -150 -200 -303 -56 -140 -148 -424 -194
-596 -42 -157 -60 -196 -130 -277 -22 -26 -43 -57 -45 -69 -3 -12 -10 -51 -16
-86 -7 -36 -52 -182 -102 -325 -232 -670 -324 -992 -413 -1438 -10 -48 -23
-95 -30 -105 -11 -15 -15 -16 -31 -3 -24 21 -134 253 -179 380 -57 162 -97
220 -151 220 -28 0 -80 -43 -100 -82 -38 -73 -35 -333 6 -503 56 -237 186
-415 350 -479 25 -10 90 -22 145 -27 55 -5 150 -21 210 -35 203 -46 304 -42
670 27 280 52 356 61 520 63 182 1 221 13 263 76 23 34 24 39 19 180 -3 80
-31 366 -62 635 -115 1009 -118 1051 -92 1101 9 17 23 36 31 43 21 18 20 50
-5 132 -12 38 -19 76 -16 84 9 21 45 37 212 95 265 92 311 119 362 217 58 108
79 252 51 345 -26 88 -125 134 -325 152 -150 13 -153 15 -209 108 -64 104
-162 168 -260 168 -17 0 -37 6 -43 14 -7 8 -23 58 -36 111 -41 165 -114 229
-200 177z m57 -209 c4 -16 11 -75 15 -129 l8 -99 116 -12 c167 -16 188 -31
273 -186 l45 -84 171 -6 c245 -9 257 -17 248 -162 -9 -137 -63 -180 -338 -270
-196 -64 -231 -83 -280 -151 -23 -30 -48 -58 -57 -61 -47 -18 -563 178 -563
214 0 22 75 297 127 463 83 270 190 526 216 517 6 -2 15 -17 19 -34z m-132
-1333 c179 -56 326 -104 328 -105 2 -2 20 -154 152 -1290 27 -242 54 -465 59
-495 5 -30 8 -56 7 -57 -1 -1 -69 -3 -151 -4 -177 -2 -312 -17 -570 -65 -348
-64 -431 -66 -622 -15 -39 11 -120 24 -180 30 -64 6 -127 18 -154 29 -54 23
-115 82 -152 144 -58 100 -147 437 -108 414 5 -4 34 -58 65 -121 91 -189 200
-336 295 -397 95 -60 106 -43 136 220 37 313 120 635 317 1232 162 489 207
600 242 587 6 -3 157 -51 336 -107z"/>
<path d="M14762 3226 c-49 -44 -186 -316 -242 -481 -64 -186 -149 -347 -304
-577 -78 -115 -150 -222 -161 -239 -95 -146 -413 -541 -428 -532 -21 13 6 97
79 243 110 220 190 299 302 300 38 0 42 2 33 18 -5 10 -22 30 -37 45 -77 77
-224 -24 -344 -237 -35 -62 -70 -110 -97 -132 -23 -19 -101 -90 -173 -159
-136 -128 -219 -183 -259 -170 -34 10 -60 82 -71 195 -28 276 -51 330 -140
330 -99 0 -305 -214 -484 -504 -46 -75 -62 -93 -69 -81 -5 9 -4 30 4 53 18 56
214 572 260 684 23 54 38 105 35 113 -3 9 -17 20 -31 27 -21 9 -28 8 -46 -8
-30 -27 -74 -118 -128 -264 -44 -117 -50 -128 -106 -180 -32 -30 -128 -120
-212 -199 -182 -171 -253 -229 -361 -294 -141 -85 -285 -120 -339 -82 -42 29
-73 217 -40 242 6 6 44 20 82 31 250 75 501 409 411 547 -75 115 -302 25 -437
-172 -111 -162 -371 -453 -517 -579 -118 -101 -209 -131 -256 -85 -48 49 -15
274 86 578 55 166 55 183 -3 183 -31 0 -67 -39 -94 -103 -29 -69 -254 -227
-323 -227 -44 0 -75 31 -117 116 -31 62 -44 79 -72 91 -32 13 -38 12 -80 -8
-64 -31 -160 -129 -226 -229 -30 -47 -92 -160 -138 -252 -46 -93 -87 -168 -91
-168 -16 0 -7 70 21 166 39 138 70 221 162 435 81 189 94 244 64 269 -32 26
-63 -4 -111 -105 -24 -52 -50 -95 -57 -95 -7 0 -58 -36 -113 -80 -109 -87
-201 -140 -245 -140 -40 0 -82 40 -116 112 -17 35 -40 72 -52 82 -51 46 -130
9 -241 -111 -75 -82 -132 -177 -233 -386 -42 -86 -79 -157 -83 -157 -4 0 -4
30 -2 68 7 87 73 282 177 525 91 210 106 268 73 286 -42 22 -65 0 -115 -110
-25 -57 -52 -106 -59 -108 -7 -2 -87 -79 -178 -171 -261 -265 -418 -365 -472
-302 -47 53 -26 265 54 554 34 124 34 156 -3 177 -23 13 -28 12 -52 -5 -14
-10 -95 -95 -179 -188 -222 -246 -459 -449 -504 -432 -46 18 31 291 133 469
28 51 26 68 -10 91 -43 27 -109 -56 -168 -209 -54 -138 -72 -221 -73 -332 -1
-94 1 -103 23 -127 33 -35 76 -34 150 3 91 46 203 137 353 285 88 87 145 136
159 136 23 0 23 16 -7 -194 -32 -226 22 -353 149 -350 115 2 259 87 434 257
l112 109 -30 -82 c-39 -108 -94 -320 -115 -444 -27 -159 -8 -226 62 -226 48 0
72 37 228 351 73 146 153 297 179 335 57 85 140 174 161 174 8 0 23 -12 32
-27 71 -115 113 -150 190 -159 75 -9 162 29 301 131 21 16 20 13 -8 -62 -103
-276 -173 -612 -145 -701 10 -30 55 -52 83 -41 38 14 81 85 214 354 70 143
147 289 171 325 49 76 147 180 168 180 8 0 25 -18 38 -41 61 -106 141 -157
227 -146 48 7 149 54 204 94 29 22 32 23 27 7 -3 -11 -17 -86 -31 -168 -20
-121 -23 -159 -16 -207 24 -149 102 -208 232 -175 102 27 217 112 397 295 l92
94 0 -70 c0 -148 63 -266 155 -292 176 -49 417 77 775 403 57 52 106 94 107
92 2 -1 -11 -40 -28 -87 -87 -239 -130 -471 -95 -524 20 -31 63 -33 99 -5 14
11 62 91 106 178 96 188 209 364 313 487 112 133 161 177 189 173 27 -4 31
-17 49 -196 18 -176 54 -257 134 -299 36 -19 97 -12 162 18 25 12 91 63 147
112 75 68 99 85 93 66 -19 -67 -25 -121 -16 -143 20 -53 81 -60 143 -17 83 57
322 337 500 587 110 154 142 192 153 181 4 -4 -19 -111 -50 -239 -63 -260 -78
-335 -106 -523 -73 -494 -34 -1055 73 -1055 26 0 50 27 50 56 0 16 -11 74 -24
129 -22 92 -23 121 -23 375 0 232 3 300 22 435 84 594 270 1206 462 1520 90
147 210 420 210 478 0 43 -25 77 -56 77 -13 0 -40 -15 -62 -34z m-2964 -1408
c8 -65 -106 -202 -245 -296 -128 -87 -138 -36 -25 134 77 115 177 196 237 191
24 -2 31 -7 33 -29z"/>
<path d="M3260 3158 c-26 -19 -72 -75 -110 -131 -36 -53 -74 -103 -85 -111
-11 -7 -49 -22 -84 -32 -96 -26 -173 -82 -204 -147 -13 -28 -57 -88 -97 -132
-90 -98 -104 -130 -95 -204 18 -146 65 -227 176 -302 75 -51 97 -74 122 -129
38 -85 46 -193 57 -742 10 -518 18 -657 43 -686 24 -30 80 -42 259 -57 101 -8
239 -23 308 -32 152 -20 478 -23 601 -5 155 22 218 44 334 112 28 16 80 41
117 55 95 37 182 96 263 179 182 185 219 421 94 602 -18 26 -62 79 -99 118
-149 159 -148 172 19 349 110 118 126 155 93 222 -24 49 -54 73 -109 85 -45
11 -133 -5 -187 -32 -94 -48 -185 -182 -227 -333 -30 -112 -25 -268 13 -340
32 -61 66 -98 138 -152 99 -73 115 -103 94 -174 -16 -54 -83 -135 -105 -127
-8 3 -20 31 -27 64 -13 63 -112 275 -182 389 -150 246 -389 499 -639 677 -147
105 -150 111 -126 261 20 123 17 172 -20 317 -28 110 -98 316 -125 369 -30 58
-73 93 -122 98 -38 4 -49 1 -88 -29z m133 -268 c70 -211 90 -305 84 -384 -8
-99 -34 -209 -60 -248 -13 -18 -37 -42 -55 -54 -29 -20 -168 -82 -297 -132
l-50 -20 -55 66 c-30 37 -71 76 -90 89 -70 44 -93 68 -116 117 -36 77 -32 93
39 175 34 40 80 102 102 138 54 89 75 103 168 112 99 9 121 25 177 133 51 97
77 130 99 126 11 -2 29 -43 54 -118z m222 -855 c203 -105 418 -322 615 -618
130 -195 181 -310 224 -510 4 -16 20 -36 39 -47 105 -65 280 43 328 201 27 87
25 225 -3 256 -10 11 -18 26 -18 33 0 28 40 -24 61 -79 66 -176 -51 -390 -274
-501 -44 -22 -90 -40 -104 -40 -30 0 -58 -14 -100 -50 -37 -33 -128 -65 -233
-82 -123 -20 -448 -16 -645 9 -93 12 -222 25 -286 29 l-117 6 -7 462 c-3 253
-5 532 -3 619 l3 159 144 64 c79 35 150 69 157 75 19 16 106 48 131 49 12 0
51 -16 88 -35z m1185 -44 c-108 -81 -200 -230 -200 -323 0 -64 39 -139 118
-227 53 -60 54 -64 22 -45 -66 37 -147 125 -161 174 -37 139 84 419 195 448
53 15 65 2 26 -27z"/>
<path d="M6613 3135 c-12 -8 -29 -39 -39 -68 -20 -62 -50 -125 -71 -149 -9 -9
-50 -24 -92 -33 -42 -9 -179 -42 -305 -72 -230 -56 -273 -74 -260 -108 9 -22
49 -19 192 15 245 59 335 76 385 72 26 -3 21 -37 -18 -135 -88 -218 -199 -581
-270 -881 -50 -212 -69 -234 -218 -251 -83 -9 -120 -51 -81 -90 12 -12 34 -15
95 -13 49 1 84 -3 91 -10 14 -14 14 -13 -95 -491 -86 -374 -90 -400 -55 -414
19 -7 55 9 66 30 12 22 117 442 176 703 35 152 49 198 66 212 23 19 30 21 385
83 143 25 279 53 302 61 67 24 104 89 71 122 -17 17 -35 15 -92 -13 -65 -31
-590 -127 -620 -112 -15 7 -17 16 -11 53 8 54 159 596 210 754 46 140 147 384
170 410 22 25 15 23 385 69 391 49 579 67 850 82 247 13 264 16 268 51 5 44
-23 52 -172 44 -283 -15 -692 -55 -1026 -102 -208 -29 -229 -29 -237 -8 -3 9
3 49 15 88 l21 71 -25 23 c-30 26 -33 27 -61 7z"/>
<path d="M15075 2198 c-81 -28 -186 -133 -230 -230 -51 -112 -53 -190 -8 -423
26 -138 41 -337 29 -400 -6 -31 -27 -57 -116 -144 -148 -146 -241 -294 -240
-385 1 -39 38 -105 72 -126 45 -29 114 -23 168 15 92 64 190 269 214 451 14
100 21 107 411 386 198 141 373 271 388 288 26 29 27 34 14 53 -20 31 -51 32
-95 5 -20 -12 -172 -117 -337 -234 -165 -116 -310 -216 -323 -223 -19 -10 -23
-9 -31 11 -5 13 -15 70 -21 128 -6 58 -23 166 -37 240 -38 207 -23 304 63 400
47 52 115 87 185 96 30 4 60 11 67 17 20 16 14 44 -14 66 -30 23 -106 28 -159
9z m-255 -1361 c-15 -76 -61 -167 -108 -216 -45 -48 -60 -49 -81 -6 -13 27
-12 34 19 94 36 69 169 215 177 194 2 -7 0 -37 -7 -66z"/>
<path d="M10787 2122 c-43 -47 3 -141 61 -127 65 15 101 99 57 131 -28 21 -98
18 -118 -4z"/>
</g>
</svg>
